<svg width="25" height="19" viewBox="0 0 25 19" fill="none" xmlns="http://www.w3.org/2000/svg">
<path d="M19.6649 15.5916C21.7494 15.5916 23.4392 13.9018 23.4392 11.8173C23.4392 9.73278 21.7494 8.04297 19.6649 8.04297C17.5804 8.04297 15.8906 9.73278 15.8906 11.8173C15.8906 13.9018 17.5804 15.5916 19.6649 15.5916Z" stroke="black" stroke-width="0.5" stroke-linecap="round" stroke-linejoin="round"/>
<path d="M5.65906 15.5916C7.74355 15.5916 9.43336 13.9018 9.43336 11.8173C9.43336 9.73278 7.74355 8.04297 5.65906 8.04297C3.57458 8.04297 1.88477 9.73278 1.88477 11.8173C1.88477 13.9018 3.57458 15.5916 5.65906 15.5916Z" stroke="black" stroke-width="0.5" stroke-linecap="round" stroke-linejoin="round"/>
<path d="M17.4929 5.23438L12.3722 11.8158H5.6582L10.7976 5.23438H17.4929Z" stroke="black" stroke-width="0.5" stroke-linecap="round" stroke-linejoin="round"/>
<path d="M19.6635 11.8172L16.6862 2.78906H14.4953M10.3037 3.14941L12.3713 11.8172M8.9668 3.14941H11.7545" stroke="black" stroke-width="0.5" stroke-linecap="round" stroke-linejoin="round"/>
<path d="M1.5625 16.209H23.439" stroke="#030302" stroke-width="0.5" stroke-linecap="round"/>
</svg>
