<svg width="31" height="31" viewBox="0 0 31 31" fill="none" xmlns="http://www.w3.org/2000/svg">
<path d="M15.5001 26.6623C21.6653 26.6623 26.6628 21.6648 26.6628 15.4996C26.6628 9.33445 21.6653 4.33691 15.5001 4.33691C9.33494 4.33691 4.3374 9.33445 4.3374 15.4996C4.3374 21.6648 9.33494 26.6623 15.5001 26.6623Z" stroke="#030302" stroke-width="1.5" stroke-linecap="round" stroke-linejoin="round"/>
<path d="M18.849 11.593C18.0843 10.8283 16.7381 10.297 15.5002 10.2635M15.5002 10.2635C14.0267 10.2233 12.7095 10.8897 12.7095 12.7092C12.7095 16.058 18.849 14.3836 18.849 17.7324C18.849 19.6424 17.2148 20.4628 15.5002 20.4014M15.5002 10.2635V8.24414M12.1514 18.8487C12.8702 19.8087 14.2087 20.3557 15.5002 20.4014M15.5002 20.4014V22.7556" stroke="#030302" stroke-width="1.5" stroke-linecap="round" stroke-linejoin="round"/>
</svg>
