<svg width="192" height="192" viewBox="0 0 192 192" fill="none" xmlns="http://www.w3.org/2000/svg">
<path fill-rule="evenodd" clip-rule="evenodd" d="M96.9969 191.22C149.464 191.22 191.997 148.687 191.997 96.2199C191.997 43.7529 149.464 1.2199 96.9969 1.2199C58.6989 1.2199 73.4935 -5.29674 70.9879 42.2199C72.7722 55.2562 70.9948 91.0508 70.9948 105.22C70.9948 120.249 70.9948 133.72 70.9948 152.72C73.5 196.203 59.5585 191.22 96.9969 191.22Z" fill="#FDFDFC"/>
<path d="M63.8334 103.564L52.664 99.3477C51.1151 98.763 49.3854 99.5447 48.8007 101.094L46.8076 106.374C46.2229 107.923 47.0046 109.652 48.5536 110.237L59.723 114.453C61.2719 115.038 63.0016 114.256 63.5863 112.707L65.5794 107.427C66.1641 105.878 65.3824 104.149 63.8334 103.564Z" stroke="#2D2B24" stroke-width="4" stroke-miterlimit="10" stroke-linejoin="round"/>
<path d="M52.0122 115.448C52.0122 115.448 37.7267 170.942 2 104.738" stroke="#2D2B24" stroke-width="4" stroke-miterlimit="10" stroke-linejoin="round"/>
<path d="M72 33.9531L145.204 33.9531M142.366 33.9531L169 33.9531" stroke="#2D2B24"/>
<path d="M71 123L159.298 123M155.875 123L188 123" stroke="#2D2B24"/>
<path d="M71 1.20312L71 28.2031M71 99.4789L71 191.203" stroke="#2D2B24" stroke-width="2"/>
<path d="M115 179.5L115 162.5M143.016 80.4531L190.497 80.4531M155 171L155 162.5M88.5 191.5L88.5 181.5M126.5 186.5L126.5 181.5" stroke="#2D2B24"/>
<path d="M120.487 58.5L145 58.5M71.5 101.883L135.062 101.883M134.521 101.883L192.009 101.883" stroke="#2D2B24"/>
<path d="M167.492 102L192.006 102" stroke="#2D2B24"/>
<path d="M71.6119 80.449L145.747 80.449M145.747 58.5388L183.889 58.5388M71.6094 144.5L179.5 144.5" stroke="#2D2B24"/>
<path d="M71.6094 180.496L140 180.496" stroke="#2D2B24"/>
<path d="M166.172 123.164L166.172 102.223" stroke="#2D2B24"/>
<path d="M177.859 102.227L177.859 80.3105" stroke="#2D2B24"/>
<path d="M167.148 80.6328L167.148 58.5469" stroke="#2D2B24"/>
<path d="M120 80.6445L120 58.001" stroke="#2D2B24"/>
<path d="M71.2266 58.375L71.2266 33.875" stroke="#2D2B24"/>
<path d="M92.7578 34.6172L92.7578 1.95117" stroke="#2D2B24"/>
<path d="M133.586 34.2422L133.586 9" stroke="#2D2B24"/>
<path d="M129.875 123.336L129.875 101.886" stroke="#2D2B24"/>
<path d="M136 97L136 80" stroke="#2D2B24"/>
<path d="M186 129.5L186 123" stroke="#2D2B24"/>
<path d="M128 140L128 123" stroke="#2D2B24"/>
<path d="M151 163L151 145" stroke="#2D2B24"/>
<path d="M89 102L89 80" stroke="#2D2B24"/>
<path d="M139 145L139 123" stroke="#2D2B24"/>
<path d="M81 145L81 123" stroke="#2D2B24"/>
<path d="M98 163L98 145" stroke="#2D2B24"/>
<path d="M71 11.9531L138 11.9531" stroke="#2D2B24"/>
<path d="M70 163H166" stroke="#2D2B24"/>
<path d="M126.581 33.0078H122.381C120.505 33.0078 118.984 34.5286 118.984 36.4046V59.6362C118.984 61.5122 120.505 63.033 122.381 63.033H126.581C128.457 63.033 129.978 61.5122 129.978 59.6362V36.4046C129.978 34.5286 128.457 33.0078 126.581 33.0078Z" fill="#F6F6EE" stroke="#2D2B24" stroke-width="4" stroke-miterlimit="10" stroke-linejoin="round"/>
<path d="M49.1875 86.0175C49.1875 86.0175 45.7907 92.9896 54.0124 94.9531C59.0314 96.1554 63.515 98.6807 68.4185 99.9827C72.1356 100.97 75.3644 99.7045 76.1729 95.6672C77.7794 87.624 82.0687 71.1808 92.0806 71.3593C98.5014 71.3593 104.996 71.5746 111.39 71.5273C115.249 71.4958 116.278 68.225 116.21 64.7495C116.063 57.7197 116.126 50.6846 116.147 43.6547C116.157 39.7067 116.787 35.8006 116.446 31.8421C115.942 25.9987 113.091 25.1587 107.453 25.2532C101.877 25.3477 96.2964 25.3425 90.7208 25.3162C81.6277 25.269 71.9204 23.652 67.7781 33.8318C63.4887 44.3792 49.1928 86.0175 49.1928 86.0175H49.1875Z" fill="#F6F6EE" stroke="#2D2B24" stroke-width="4" stroke-miterlimit="10" stroke-linejoin="round"/>
<path d="M97.1461 37.4688L86.9609 46.9399L92.0535 49.8012L88.5675 58.5583L99.4719 48.9087L94.2848 45.6904L97.1461 37.4688Z" fill="#2D2B24" stroke="#2D2B24" stroke-width="2" stroke-miterlimit="10" stroke-linejoin="round"/>
<path d="M127.404 138.926C127.404 139.95 126.356 140.781 125.065 140.781C123.775 140.781 122.727 139.95 122.727 138.926" stroke="#2D2B24" stroke-width="2.4" stroke-miterlimit="10"/>
<path d="M145.258 58.4219L145.258 33.9482" stroke="#2D2B24"/>
<circle cx="125" cy="114" r="31" fill="#FDFDFC" stroke="#2D2B24" stroke-width="2"/>
<path d="M125 140C139.359 140 151 128.359 151 114C151 99.6406 139.359 88 125 88C110.641 88 99 99.6406 99 114C99 128.359 110.641 140 125 140Z" fill="#FDFDFC" stroke="#2D2B24" stroke-width="2.4" stroke-miterlimit="10"/>
<g clip-path="url(#clip0_414_7572)">
<mask id="mask0_414_7572" style="mask-type:luminance" maskUnits="userSpaceOnUse" x="105" y="102" width="40" height="24">
<path d="M145 102.281H105V125.957H145V102.281Z" fill="white"/>
</mask>
<g mask="url(#mask0_414_7572)">
<path fill-rule="evenodd" clip-rule="evenodd" d="M115.843 106.31C115.883 106.219 115.915 106.133 115.961 106.05C116.062 105.864 116.282 105.466 116.485 105.214C116.688 104.961 116.927 104.731 117.179 104.536C117.431 104.341 117.71 104.176 117.998 104.044C118.285 103.912 118.849 103.757 118.904 103.745C119.314 103.659 119.813 103.612 120.223 103.612C120.69 103.612 121.223 103.676 121.907 103.834C122.207 103.903 122.478 103.987 122.736 104.09C122.736 104.09 122.825 103.93 122.891 103.854C123.024 103.699 123.327 103.386 123.578 103.195C123.829 103.004 124.111 102.838 124.398 102.708C124.685 102.577 125.3 102.414 125.3 102.414C125.718 102.326 126.144 102.281 126.579 102.281C127.014 102.281 127.595 102.346 128.277 102.503C129.081 102.688 129.644 102.982 130.284 103.427C131.366 104.179 131.706 105.64 131.073 106.803L131.174 106.861C131.174 106.861 131.503 106.518 131.692 106.378C131.897 106.225 132.165 106.068 132.403 105.947C132.635 105.829 132.874 105.717 133.125 105.65C133.59 105.527 134.153 105.471 134.636 105.471C135.089 105.471 135.669 105.527 136.36 105.704C136.815 105.82 137.198 105.956 137.572 106.142L137.589 106.128C137.589 106.128 138.172 105.809 138.49 105.723C138.887 105.615 139.342 105.511 139.974 105.483C140.497 105.46 141.52 105.563 142.069 105.73C142.778 105.945 143.178 106.1 143.858 106.556C144.859 107.226 145.262 108.514 144.826 109.647C144.572 110.306 144.158 111.583 143.699 112.958C143.213 114.409 142.751 115.761 142.134 117.486C141.443 119.415 140.7 121.074 139.789 122.486C138.535 124.429 137.079 125.386 135.406 125.766C134.697 125.928 134.195 126.001 133.375 125.929C132.925 125.889 132.256 125.719 131.789 125.523C131.348 125.337 130.886 124.994 130.577 124.749C130.33 124.553 130.128 124.303 129.937 124.05C129.746 123.797 129.569 123.52 129.427 123.231C129.281 122.933 129.141 122.599 129.059 122.263C128.971 121.905 128.901 121.229 128.902 121.082C127.955 121.628 126.683 122.104 125.693 122.251C124.406 122.441 123.93 122.426 123.072 122.304C122.437 122.214 121.606 121.853 121.606 121.853C121.449 122.008 121.288 122.156 121.122 122.298C119.89 123.355 118.456 123.717 117.658 123.764C117.546 123.771 117.234 123.775 117.073 123.753C116.799 123.717 116.341 123.615 116 123.471C115.629 123.314 115.188 123.087 114.845 122.811C114.501 122.536 114.15 122.105 113.94 121.817C113.78 121.597 113.585 121.082 113.585 121.082C112.794 121.378 111.874 121.53 111.274 121.53C110.558 121.53 109.879 121.518 108.872 121.147C107.728 120.724 106.567 119.82 105.948 118.704C105.408 117.731 105 116.31 105 114.761C105 113.975 105.103 113.103 105.323 112.147C105.551 111.161 105.941 110.184 106.507 109.219C107.121 108.171 107.905 107.275 108.833 106.614C109.85 105.891 110.987 105.345 112.346 105.261C113.733 105.175 114.891 105.605 115.814 106.289C115.824 106.296 115.833 106.303 115.843 106.31Z" fill="#473400"/>
<path d="M134.848 123.25C134.41 123.35 134.101 123.405 133.595 123.36C133.216 123.326 132.657 123.175 132.265 122.822C131.827 122.427 131.452 121.766 131.446 121.1C131.585 121.323 131.933 121.76 132.794 121.835C133.252 121.876 134.014 121.666 134.427 121.178C134.805 120.73 135.01 120.34 135.54 119.1C135.901 118.255 136.055 117.833 136.389 116.844C136.139 117.235 136.002 117.426 135.71 117.753C134.918 118.641 134.16 118.985 133.458 118.996C132.756 119.006 131.819 118.495 131.497 117.814C131.217 117.221 131.111 116.581 131.094 115.765C131.089 115.517 131.111 115.158 131.171 114.543C131.23 113.93 131.388 113.073 131.699 111.975C132.01 110.877 132.311 109.841 132.725 109.02C132.963 108.547 133.399 108.276 133.793 108.167C134.049 108.096 134.365 108.059 134.635 108.059C134.925 108.059 135.296 108.095 135.738 108.208C136.184 108.322 136.512 108.467 136.894 108.721C136.633 109.164 136.318 109.845 135.925 110.738C135.531 111.631 135.171 112.576 134.845 113.574C134.518 114.572 134.293 115.434 134.169 116.159C134.127 116.411 134.107 116.621 134.107 116.789C134.107 117.168 134.248 117.357 134.434 117.357C134.796 117.357 135.282 116.942 135.795 116.111C136.308 115.281 136.694 114.353 137.097 113.267C137.501 112.176 137.732 111.361 137.925 110.69C138.072 110.183 138.259 109.475 138.397 109.03C138.543 108.563 138.751 108.354 139.284 108.176C139.541 108.091 139.744 108.078 140.083 108.064C140.396 108.05 141.01 108.105 141.339 108.205C141.779 108.338 142.031 108.428 142.454 108.711C142.192 109.392 141.761 110.711 141.287 112.131C140.808 113.566 140.35 114.903 139.74 116.608C139.124 118.33 138.47 119.815 137.658 121.076C136.844 122.336 135.933 123.003 134.848 123.25Z" fill="#FFD768"/>
<path d="M111.276 118.951C110.82 118.951 110.386 118.961 109.745 118.724C109.134 118.499 108.499 118.037 108.168 117.441C107.802 116.78 107.547 115.812 107.547 114.762C107.547 114.153 107.632 113.478 107.803 112.737C107.974 111.996 108.272 111.263 108.697 110.538C109.122 109.813 109.655 109.185 110.297 108.728C110.939 108.271 111.645 107.891 112.504 107.838C113.228 107.793 113.832 108.016 114.314 108.374C114.796 108.731 115.13 109.183 115.317 109.729C115.43 110.055 115.488 110.386 115.488 110.722C115.488 110.953 115.44 111.336 115.368 111.624C115.18 112.375 114.675 113.006 114.16 113.359C113.689 113.682 113.334 113.842 112.816 113.95C112.568 114.002 112.117 114.031 111.834 114.032C111.512 114.033 111.279 114 111.028 113.96C110.883 114.528 110.854 114.798 110.854 115.292C110.854 115.544 110.84 115.908 110.94 116.379C111.04 116.848 111.316 117.355 111.858 117.46C112.084 117.504 112.314 117.515 112.541 117.491C112.794 117.464 113.159 117.364 113.612 117.126C114.084 116.879 114.621 116.397 115.003 115.912C115.456 115.339 116.005 114.315 116.327 113.685C116.43 113.506 116.508 113.372 116.56 113.283C116.611 113.193 116.653 113.149 116.684 113.149C116.736 113.149 116.762 113.207 116.762 113.322C116.689 114.173 116.409 115.024 115.922 115.875C115.57 116.516 115.222 117.064 114.682 117.512C114.014 118.065 113.364 118.415 112.712 118.661C112.221 118.846 111.649 118.952 111.276 118.952L111.276 118.951ZM111.761 113.182C112.241 113.166 112.977 112.9 113.367 112.559C113.758 112.219 114.098 111.756 114.105 111.138C114.107 110.969 114.081 110.739 113.965 110.525C113.857 110.323 113.578 110.171 113.356 110.218C113.099 110.272 112.745 110.47 112.424 110.848C112.103 111.226 111.818 111.71 111.569 112.298C111.476 112.487 111.336 112.918 111.269 113.123C111.269 113.123 111.564 113.189 111.761 113.182Z" fill="#FFD768"/>
<path d="M117.551 121.198H117.489C116.629 121.104 116.065 120.652 115.796 119.843C115.619 119.297 115.531 118.666 115.531 117.952C115.531 116.638 115.919 114.654 116.324 113.051C116.778 111.253 117.64 108.477 118.258 107.163C118.467 106.718 118.884 106.39 119.423 106.274C119.671 106.221 119.974 106.195 120.223 106.195C120.534 106.195 120.887 106.248 121.343 106.353C121.799 106.458 122.142 106.633 122.515 106.885C122.33 107.244 121.96 108.047 121.421 109.323C120.882 110.6 120.338 112.013 119.789 113.563C119.24 115.112 118.826 116.47 118.546 117.636C118.411 118.204 118.344 118.65 118.344 118.976C118.344 119.364 118.442 119.559 118.639 119.559C118.95 119.559 119.307 119.333 119.711 118.881C120.271 118.23 121.417 116.357 121.731 115.697C121.8 115.554 121.939 115.332 121.996 115.303C122.053 115.274 122.073 115.409 122.073 115.525C122.001 116.386 121.719 117.258 121.227 118.141C120.734 119.023 120.152 119.754 119.478 120.331C118.805 120.909 118.163 121.198 117.552 121.198L117.551 121.198Z" fill="#FFD768"/>
<path d="M125.326 119.699C124.393 119.836 124.047 119.838 123.425 119.75C122.617 119.636 121.836 119.174 121.608 118.365C121.484 117.924 121.422 117.43 121.422 116.884C121.422 115.55 121.679 113.925 122.383 111.718C123.057 109.586 124.064 106.954 124.636 105.824C124.86 105.384 125.268 105.058 125.817 104.942C126.066 104.889 126.32 104.863 126.579 104.863C126.879 104.863 127.257 104.916 127.713 105.021C128.169 105.126 128.483 105.304 128.846 105.557C128.695 105.828 128.426 106.389 127.985 107.267C127.545 108.144 127.066 109.166 126.548 110.332C127.377 109.375 128.109 108.848 128.895 108.85C130.255 108.853 131.093 109.81 131.13 111.448C131.134 111.615 131.127 111.931 131.109 112.301C131.087 112.753 130.926 113.72 130.713 114.397C130.477 115.146 130.156 116.035 129.695 116.792C129.234 117.548 128.641 118.157 127.968 118.635C127.294 119.113 126.168 119.574 125.327 119.698L125.326 119.699ZM124.526 118.277C124.957 118.281 125.556 117.813 126.005 117.204C126.426 116.633 126.807 115.87 127.061 115.138C127.338 114.338 127.616 113.129 127.668 112.406C127.687 112.145 127.681 111.767 127.586 111.536C127.517 111.37 127.399 111.182 127.124 111.182C126.848 111.182 126.541 111.456 126.16 111.962C125.781 112.466 125.373 113.197 125.102 113.861C124.67 114.922 124.335 116.218 124.213 117.102C124.131 117.701 124.154 118.274 124.526 118.277L124.526 118.277Z" fill="#FFD768"/>
</g>
</g>
<defs>
<clipPath id="clip0_414_7572">
<rect width="40" height="24" fill="white" transform="translate(105 102)"/>
</clipPath>
</defs>
</svg>
