<svg width="60" height="60" viewBox="0 0 60 60" fill="none" xmlns="http://www.w3.org/2000/svg">
<path d="M47.5991 2.9375H16.4872C12.2361 2.9375 8.79004 6.04343 8.79004 9.87507V14.8784C8.79004 18.2726 11.4939 21.0973 15.066 21.6981V16.5954C15.066 16.5954 14.9856 14.1299 17.721 13.9126C20.4564 13.6954 20.2957 16.8141 20.2957 16.8141V21.8174H47.5991C51.8503 21.8174 55.2963 18.7114 55.2963 14.8798V9.87649C55.2963 6.04485 51.8503 2.93892 47.5991 2.93892V2.9375Z" stroke="#030302" stroke-width="1.5" stroke-miterlimit="10"/>
<path d="M30.2746 50.3896H16.4354C15.1909 50.3896 14.1821 51.2989 14.1821 52.4205V55.0308C14.1821 56.1524 15.1909 57.0616 16.4354 57.0616H30.2746C31.519 57.0616 32.5278 56.1524 32.5278 55.0308V52.4205C32.5278 51.2989 31.519 50.3896 30.2746 50.3896Z" stroke="#030302" stroke-width="1.5" stroke-miterlimit="10"/>
<path d="M15.0424 50.6743C15.0424 50.6743 9.7528 40.5598 4.77207 35.1134C4.75316 35.0921 4.74055 35.0666 4.73583 35.0396C4.6791 34.6703 4.3876 32.0459 7.64138 31.8101C8.29687 31.7632 8.94447 31.972 9.42191 32.381L14.7587 36.944C14.8659 37.0349 15.0408 36.9668 15.0408 36.8347V16.5901C15.0408 16.5901 14.9604 14.1246 17.6958 13.9073C20.4312 13.69 20.2705 16.8088 20.2705 16.8088V27.5884C20.2705 27.7546 20.5242 26.02 20.5919 25.8652C20.9354 25.0856 21.6413 24.2121 23.0862 24.134C25.7412 23.9892 25.7548 27.5884 25.7548 27.5884C25.7548 27.5884 25.6357 24.1639 28.2356 23.9878C31.4547 23.7705 31.0512 27.5884 31.0512 27.5884C31.0512 27.5884 31.2735 24.5573 33.3802 24.3698C35.9343 24.1426 36.4811 26.7415 36.5205 26.9474C36.5221 26.9574 36.5221 26.9645 36.5221 26.9744L36.2006 43.2653C36.2006 43.2738 36.2006 43.2795 36.1975 43.288C36.1597 43.4783 35.5798 46.1354 32.0156 50.6743" stroke="#030302" stroke-width="1.5" stroke-miterlimit="10" stroke-linecap="round"/>
<path d="M15.1088 16.7928C15.1088 16.7928 11.4328 14.9366 12.7642 11.2058C14.0957 7.47502 17.986 7.70651 17.986 7.70651C17.986 7.70651 21.9756 7.44094 23.1527 11.0525C24.2761 14.4992 20.3401 17.0527 20.3401 17.0527" stroke="#030302" stroke-width="1.5" stroke-miterlimit="10"/>
<path d="M30.4354 8.48633C31.5409 8.48633 32.3476 8.72461 32.8554 9.20117C33.3632 9.67383 33.6171 10.3262 33.6171 11.1582C33.6171 11.5332 33.5604 11.8926 33.4472 12.2363C33.3339 12.5762 33.1483 12.8789 32.8905 13.1445C32.6366 13.4102 32.2968 13.6211 31.871 13.7773C31.4452 13.9297 30.9198 14.0059 30.2948 14.0059H29.5155V17.0527H27.6991V8.48633H30.4354ZM30.3417 9.97461H29.5155V12.5176H30.1132C30.453 12.5176 30.7479 12.4727 30.9979 12.3828C31.2479 12.293 31.4413 12.1523 31.578 11.9609C31.7147 11.7695 31.7831 11.5234 31.7831 11.2227C31.7831 10.8008 31.6659 10.4883 31.4315 10.2852C31.1972 10.0781 30.8339 9.97461 30.3417 9.97461ZM40.4784 17.0527L39.8573 15.0137H36.7343L36.1132 17.0527H34.1561L37.1796 8.45117H39.4003L42.4354 17.0527H40.4784ZM39.4237 13.4902L38.8026 11.498C38.7636 11.3652 38.7108 11.1953 38.6444 10.9883C38.5819 10.7773 38.5175 10.5645 38.4511 10.3496C38.3886 10.1309 38.3378 9.94141 38.2987 9.78125C38.2597 9.94141 38.205 10.1406 38.1347 10.3789C38.0683 10.6133 38.0038 10.8359 37.9413 11.0469C37.8788 11.2578 37.8339 11.4082 37.8065 11.498L37.1913 13.4902H39.4237ZM46.1854 12.0137L47.9726 8.48633H49.9296L47.0878 13.7188V17.0527H45.2831V13.7773L42.4413 8.48633H44.4101L46.1854 12.0137Z" fill="#030302"/>
</svg>
