<svg width="27" height="23" viewBox="0 0 27 23" fill="none" xmlns="http://www.w3.org/2000/svg">
<path d="M25.1572 2.06348H24.3537C23.9948 2.06348 23.7039 2.35442 23.7039 2.71331V7.15766C23.7039 7.51655 23.9948 7.80749 24.3537 7.80749H25.1572C25.5161 7.80749 25.807 7.51655 25.807 7.15766V2.71331C25.807 2.35442 25.5161 2.06348 25.1572 2.06348Z" stroke="#2D2B24" stroke-miterlimit="10" stroke-linejoin="round"/>
<path d="M20.091 2.06348L17.3438 4.61812L18.7174 5.3899L17.7771 7.75195L20.7183 5.14916L19.3192 4.28109L20.091 2.06348Z" fill="#2D2B24"/>
<path d="M10.3518 12.2041C10.3518 12.2041 9.70195 13.5379 11.2748 13.9135C12.235 14.1435 13.0927 14.6266 14.0308 14.8757C14.7419 15.0645 15.3596 14.8225 15.5143 14.0501C15.8216 12.5114 16.6422 9.3657 18.5575 9.39985C19.7859 9.39985 21.0283 9.44103 22.2516 9.43199C22.9898 9.42597 23.1867 8.80024 23.1736 8.13535C23.1455 6.79049 23.1575 5.44463 23.1616 4.09977C23.1636 3.34448 23.2841 2.59723 23.2188 1.83993C23.1224 0.722061 22.577 0.561361 21.4983 0.57944C20.4317 0.597519 19.364 0.596514 18.2974 0.591492C16.5578 0.582453 14.7007 0.273106 13.9083 2.22059C13.0877 4.23837 10.3528 12.2041 10.3528 12.2041H10.3518Z" stroke="#2D2B24" stroke-miterlimit="10" stroke-linejoin="round"/>
<path d="M13.1528 15.5618L11.016 14.7553C10.7197 14.6434 10.3888 14.793 10.277 15.0893L9.89567 16.0994C9.78381 16.3957 9.93336 16.7266 10.2297 16.8385L12.3665 17.6451C12.6628 17.7569 12.9937 17.6074 13.1055 17.311L13.4868 16.3009C13.5987 16.0046 13.4492 15.6737 13.1528 15.5618Z" stroke="#2D2B24" stroke-miterlimit="10" stroke-linejoin="round"/>
<path d="M10.8921 17.8351C10.8921 17.8351 8.15923 28.4513 1.32446 15.7861" stroke="#2D2B24" stroke-miterlimit="10" stroke-linecap="round" stroke-linejoin="round"/>
</svg>
