<svg width="31" height="31" viewBox="0 0 31 31" fill="none" xmlns="http://www.w3.org/2000/svg">
<path d="M6.50494 26.3832C9.66027 26.3832 12.218 23.8254 12.218 20.6701C12.218 17.5148 9.66027 14.957 6.50494 14.957C3.34961 14.957 0.79187 17.5148 0.79187 20.6701C0.79187 23.8254 3.34961 26.3832 6.50494 26.3832Z" stroke="#030302" stroke-linecap="round" stroke-linejoin="round"/>
<path d="M8.21886 18.669C7.82751 18.2777 7.13852 18.0057 6.50494 17.9886M6.50494 17.9886C5.75081 17.968 5.07667 18.3091 5.07667 19.2403C5.07667 20.9542 8.21886 20.0973 8.21886 21.8112C8.21886 22.7887 7.38247 23.2086 6.50494 23.1772M6.50494 17.9886V16.9551M4.79102 22.3825C5.15894 22.8738 5.84394 23.1538 6.50494 23.1772M6.50494 23.1772V24.3821" stroke="#030302" stroke-linecap="round" stroke-linejoin="round"/>
<circle cx="13.8016" cy="9.15807" r="4.13659" stroke="#030302"/>
<circle cx="23.5856" cy="12.9672" r="2.96129" stroke="#030302"/>
<path d="M8.22445 15.1625C8.22445 15.1625 8.04322 14.7523 10.4379 14.7523C12.8326 14.7523 15.7517 14.7523 16.912 14.7523C18.0722 14.7059 20.5458 15.1281 21.1584 17.1888" stroke="#030302" stroke-linecap="round"/>
<path d="M22.3184 17.6895H25.5674C27.8542 17.6895 29.7078 19.5433 29.708 21.8301C29.708 22.8355 28.8931 23.6504 27.8877 23.6504H19.998C18.9927 23.6503 18.1777 22.8354 18.1777 21.8301C18.1779 19.5433 20.0316 17.6896 22.3184 17.6895Z" stroke="#030302"/>
<path d="M11.6282 23.6631H18.3042" stroke="#030302" stroke-linecap="round"/>
</svg>
